<?xml version="1.0" encoding="UTF-8"?>
<!DOCTYPE svg PUBLIC "-//W3C//DTD SVG 1.1//EN" "http://www.w3.org/Graphics/SVG/1.1/DTD/svg11.dtd">
<svg xmlns="http://www.w3.org/2000/svg" version="1.1" width="323px" height="323px" style="shape-rendering:geometricPrecision; text-rendering:geometricPrecision; image-rendering:optimizeQuality; fill-rule:evenodd; clip-rule:evenodd" xmlns:xlink="http://www.w3.org/1999/xlink">
<g><path style="opacity:0.965" fill="#1e1d1d" d="M 144.5,0.5 C 211.823,-2.92398 263.657,23.4093 300,79.5C 328.667,133.833 328.667,188.167 300,242.5C 256.521,308.231 196.021,332.731 118.5,316C 64.921,300.088 28.421,265.921 9,213.5C -8.38009,157.414 0.61991,106.08 36,59.5C 64.4949,25.834 100.662,6.16733 144.5,0.5 Z"/></g>
<g><path style="opacity:1" fill="#767575" d="M 172.5,19.5 C 161.484,19.4174 150.484,19.7507 139.5,20.5C 145.762,18.9805 152.262,18.3138 159,18.5C 163.68,18.5009 168.18,18.8342 172.5,19.5 Z"/></g>
<g><path style="opacity:1" fill="#fbfbfb" d="M 172.5,19.5 C 223.193,25.5832 261.359,50.5832 287,94.5C 291.017,102.195 294.183,110.195 296.5,118.5C 296.41,121.152 297.076,123.485 298.5,125.5C 300.13,129.911 301.13,134.578 301.5,139.5C 302.259,150.817 302.593,162.15 302.5,173.5C 295.696,227.488 268.029,266.488 219.5,290.5C 216.053,291.083 213.053,292.416 210.5,294.5C 204.397,296.19 198.397,297.856 192.5,299.5C 187.55,299.77 182.883,300.77 178.5,302.5C 176.5,302.5 174.5,302.5 172.5,302.5C 161.484,302.583 150.484,302.249 139.5,301.5C 134.609,300.99 129.942,299.99 125.5,298.5C 123.485,297.076 121.152,296.41 118.5,296.5C 76.3673,282.204 46.534,254.538 29,213.5C 24.4909,200.448 21.3242,187.115 19.5,173.5C 19.4074,162.15 19.7407,150.817 20.5,139.5C 20.8704,134.578 21.8704,129.911 23.5,125.5C 24.9238,123.485 25.5905,121.152 25.5,118.5C 40.8247,71.842 71.8247,40.842 118.5,25.5C 121.152,25.5905 123.485,24.9238 125.5,23.5C 129.942,22.0099 134.609,21.0099 139.5,20.5C 150.484,19.7507 161.484,19.4174 172.5,19.5 Z"/></g>
<g><path style="opacity:1" fill="#9d9d9d" d="M 125.5,23.5 C 123.485,24.9238 121.152,25.5905 118.5,25.5C 120.515,24.0762 122.848,23.4095 125.5,23.5 Z"/></g>
<g><path style="opacity:1" fill="#101010" d="M 270.5,199.5 C 270.5,164.5 270.5,129.5 270.5,94.5C 263.646,94.176 256.979,94.5093 250.5,95.5C 232.961,95.8673 215.961,99.034 199.5,105C 188.225,110.899 178.058,118.399 169,127.5C 168.498,130.488 167.331,133.155 165.5,135.5C 164.18,143.343 164.18,151.343 165.5,159.5C 166.107,159.376 166.44,159.043 166.5,158.5C 176.269,148.445 187.602,140.612 200.5,135C 214.395,131.188 228.395,128.355 242.5,126.5C 242.5,128.833 242.5,131.167 242.5,133.5C 223.222,134.32 205.222,139.487 188.5,149C 183.303,152.873 178.137,156.706 173,160.5C 169.975,164.552 167.475,168.886 165.5,173.5C 164.18,181.01 164.18,188.677 165.5,196.5C 166.107,196.376 166.44,196.043 166.5,195.5C 178.401,184.128 192.234,175.794 208,170.5C 219.518,168.024 231.018,165.691 242.5,163.5C 242.5,165.833 242.5,168.167 242.5,170.5C 220.384,172.273 200.05,179.106 181.5,191C 170.186,199.634 163.853,210.967 162.5,225C 162.992,229.005 163.659,232.838 164.5,236.5C 164.281,237.675 164.614,238.675 165.5,239.5C 166.107,239.376 166.44,239.043 166.5,238.5C 177.25,226.588 190.25,218.088 205.5,213C 228.982,205.6 252.982,203.433 277.5,206.5C 271.008,224.837 259.008,238.17 241.5,246.5C 220.088,255.773 197.755,258.94 174.5,256C 179.755,246.167 187.422,238.834 197.5,234C 210.195,227.992 223.529,224.159 237.5,222.5C 239.5,222.5 241.5,222.5 243.5,222.5C 243.5,224.5 243.5,226.5 243.5,228.5C 222.503,229.606 203.836,236.606 187.5,249.5C 186.957,249.56 186.624,249.893 186.5,250.5C 190.649,251.809 194.649,251.809 198.5,250.5C 207.652,249.556 216.819,247.889 226,245.5C 238.596,241.373 249.596,234.706 259,225.5C 262.621,221.09 266.121,216.59 269.5,212C 238.935,211.229 209.935,217.562 182.5,231C 173.881,237.119 168.214,245.286 165.5,255.5C 162.788,257.26 159.788,257.927 156.5,257.5C 157.174,252.523 155.84,248.189 152.5,244.5C 143.601,234.383 132.935,226.716 120.5,221.5C 111.155,219.165 101.822,216.832 92.5,214.5C 79.8753,212.476 67.2086,212.143 54.5,213.5C 65.8372,231.336 81.8372,242.503 102.5,247C 110.587,248.599 118.587,249.766 126.5,250.5C 129.355,251.803 132.355,251.803 135.5,250.5C 135.376,249.893 135.043,249.56 134.5,249.5C 118.711,236.45 100.378,229.45 79.5,228.5C 79.5,226.5 79.5,224.5 79.5,222.5C 80.8333,222.5 82.1667,222.5 83.5,222.5C 102.404,224.191 119.737,230.357 135.5,241C 140.306,245.626 144.639,250.626 148.5,256C 132.839,258.179 117.173,257.513 101.5,254C 94.2132,251.34 86.8799,248.673 79.5,246C 62.129,237.471 50.7957,223.971 45.5,205.5C 57.848,204.247 70.1813,204.414 82.5,206C 105.212,208.26 126.212,215.26 145.5,227C 149.37,230.702 153.037,234.536 156.5,238.5C 156.56,239.043 156.893,239.376 157.5,239.5C 158.429,238.311 158.762,236.978 158.5,235.5C 161.829,222.218 159.162,210.218 150.5,199.5C 140.519,189.705 128.852,182.538 115.5,178C 103.613,175.075 91.6129,172.908 79.5,171.5C 79.5,168.833 79.5,166.167 79.5,163.5C 103.502,165.166 125.502,172.666 145.5,186C 150.008,189.342 154.008,193.175 157.5,197.5C 161.164,185.852 159.664,174.852 153,164.5C 149.833,160 146,156.167 141.5,153C 122.47,141.682 101.803,135.182 79.5,133.5C 79.5,131.167 79.5,128.833 79.5,126.5C 97.4644,128.395 114.798,132.895 131.5,140C 141.488,144.044 149.821,150.21 156.5,158.5C 156.56,159.043 156.893,159.376 157.5,159.5C 158.821,151.009 158.821,142.676 157.5,134.5C 153.908,127.386 148.908,121.22 142.5,116C 125.198,105.786 106.531,99.1195 86.5,96C 74.8636,94.8068 63.1969,94.3068 51.5,94.5C 51.8332,129.173 51.4999,163.84 50.5,198.5C 48.6293,199.767 46.7959,199.767 45,198.5C 44.3916,161.496 44.5583,124.496 45.5,87.5C 71.4532,86.2554 96.7865,89.5887 121.5,97.5C 129.509,100.682 137.176,104.516 144.5,109C 150.711,114.377 156.378,120.21 161.5,126.5C 172.034,113.446 185.034,103.78 200.5,97.5C 225.421,89.1054 251.087,85.772 277.5,87.5C 277.833,124.506 277.5,161.506 276.5,198.5C 274.591,199.348 272.591,199.682 270.5,199.5 Z"/></g>
<g><path style="opacity:1" fill="#dcdcdc" d="M 250.5,95.5 C 256.979,94.5093 263.646,94.176 270.5,94.5C 270.5,129.5 270.5,164.5 270.5,199.5C 269.502,165.004 269.168,130.337 269.5,95.5C 263.167,95.5 256.833,95.5 250.5,95.5 Z"/></g>
<g><path style="opacity:1" fill="#969696" d="M 25.5,118.5 C 25.5905,121.152 24.9238,123.485 23.5,125.5C 23.4095,122.848 24.0762,120.515 25.5,118.5 Z"/></g>
<g><path style="opacity:1" fill="#969696" d="M 296.5,118.5 C 297.924,120.515 298.59,122.848 298.5,125.5C 297.076,123.485 296.41,121.152 296.5,118.5 Z"/></g>
<g><path style="opacity:1" fill="#959595" d="M 157.5,134.5 C 158.821,142.676 158.821,151.009 157.5,159.5C 156.893,159.376 156.56,159.043 156.5,158.5C 157.492,150.684 157.826,142.684 157.5,134.5 Z"/></g>
<g><path style="opacity:1" fill="#7c7c7c" d="M 165.5,135.5 C 165.175,143.352 165.508,151.018 166.5,158.5C 166.44,159.043 166.107,159.376 165.5,159.5C 164.18,151.343 164.18,143.343 165.5,135.5 Z"/></g>
<g><path style="opacity:1" fill="#717171" d="M 20.5,139.5 C 19.7407,150.817 19.4074,162.15 19.5,173.5C 18.8341,169.012 18.5008,164.346 18.5,159.5C 18.3083,152.596 18.975,145.93 20.5,139.5 Z"/></g>
<g><path style="opacity:1" fill="#717171" d="M 301.5,139.5 C 303.025,145.93 303.692,152.596 303.5,159.5C 303.499,164.346 303.166,169.012 302.5,173.5C 302.593,162.15 302.259,150.817 301.5,139.5 Z"/></g>
<g><path style="opacity:1" fill="#7c7c7c" d="M 165.5,173.5 C 165.175,181.019 165.508,188.352 166.5,195.5C 166.44,196.043 166.107,196.376 165.5,196.5C 164.18,188.677 164.18,181.01 165.5,173.5 Z"/></g>
<g><path style="opacity:1" fill="#aaaaaa" d="M 83.5,222.5 C 82.1667,222.5 80.8333,222.5 79.5,222.5C 79.5,224.5 79.5,226.5 79.5,228.5C 78.5318,226.393 78.1984,224.059 78.5,221.5C 80.4147,221.216 82.0813,221.549 83.5,222.5 Z"/></g>
<g><path style="opacity:1" fill="#939393" d="M 237.5,222.5 C 239.607,221.532 241.941,221.198 244.5,221.5C 244.802,224.059 244.468,226.393 243.5,228.5C 243.5,226.5 243.5,224.5 243.5,222.5C 241.5,222.5 239.5,222.5 237.5,222.5 Z"/></g>
<g><path style="opacity:1" fill="#8c8c8c" d="M 158.5,235.5 C 158.762,236.978 158.429,238.311 157.5,239.5C 156.893,239.376 156.56,239.043 156.5,238.5C 157.167,237.5 157.833,236.5 158.5,235.5 Z"/></g>
<g><path style="opacity:1" fill="#8a8a8a" d="M 164.5,236.5 C 165.167,237.167 165.833,237.833 166.5,238.5C 166.44,239.043 166.107,239.376 165.5,239.5C 164.614,238.675 164.281,237.675 164.5,236.5 Z"/></g>
<g><path style="opacity:1" fill="#545454" d="M 134.5,249.5 C 135.043,249.56 135.376,249.893 135.5,250.5C 132.355,251.803 129.355,251.803 126.5,250.5C 129.385,250.806 132.052,250.473 134.5,249.5 Z"/></g>
<g><path style="opacity:1" fill="#575757" d="M 187.5,249.5 C 190.962,250.482 194.629,250.815 198.5,250.5C 194.649,251.809 190.649,251.809 186.5,250.5C 186.624,249.893 186.957,249.56 187.5,249.5 Z"/></g>
<g><path style="opacity:1" fill="#5f5f5f" d="M 219.5,290.5 C 216.947,292.584 213.947,293.917 210.5,294.5C 213.053,292.416 216.053,291.083 219.5,290.5 Z"/></g>
<g><path style="opacity:1" fill="#969696" d="M 118.5,296.5 C 121.152,296.41 123.485,297.076 125.5,298.5C 122.848,298.59 120.515,297.924 118.5,296.5 Z"/></g>
<g><path style="opacity:1" fill="#5a5959" d="M 192.5,299.5 C 188.117,301.23 183.45,302.23 178.5,302.5C 182.883,300.77 187.55,299.77 192.5,299.5 Z"/></g>
<g><path style="opacity:1" fill="#737272" d="M 139.5,301.5 C 150.484,302.249 161.484,302.583 172.5,302.5C 168.18,303.166 163.68,303.499 159,303.5C 152.262,303.686 145.762,303.019 139.5,301.5 Z"/></g>
</svg>
