<?xml version="1.0" encoding="UTF-8"?>
<!DOCTYPE svg PUBLIC "-//W3C//DTD SVG 1.1//EN" "http://www.w3.org/Graphics/SVG/1.1/DTD/svg11.dtd">
<svg xmlns="http://www.w3.org/2000/svg" version="1.1" width="1127px" height="340px" style="shape-rendering:geometricPrecision; text-rendering:geometricPrecision; image-rendering:optimizeQuality; fill-rule:evenodd; clip-rule:evenodd" xmlns:xlink="http://www.w3.org/1999/xlink">
<g><path style="opacity:0.944" fill="#bfbfbf" d="M 453.5,29.5 C 452.71,28.3915 452.21,27.0581 452,25.5C 451.5,87.8324 451.333,150.166 451.5,212.5C 448.813,212.336 446.146,212.503 443.5,213C 444.056,213.383 444.389,213.883 444.5,214.5C 443.504,214.586 442.671,214.252 442,213.5C 441.5,154.168 441.333,94.8343 441.5,35.5C 402.139,34.6157 363.806,40.449 326.5,53C 304.068,61.1109 285.235,74.2776 270,92.5C 267.921,96.9926 265.588,101.326 263,105.5C 261.385,119.765 261.052,134.098 262,148.5C 269.21,138.29 278.043,129.79 288.5,123C 320.834,103.61 355.834,93.4437 393.5,92.5C 394.799,95.6987 394.799,98.8653 393.5,102C 361.433,104.803 331.099,113.469 302.5,128C 285.258,137.91 272.091,151.743 263,169.5C 261.386,183.431 261.053,197.431 262,211.5C 274.135,196.516 288.968,185.016 306.5,177C 333.414,164.948 361.581,157.448 391,154.5C 392.326,154.755 393.326,155.422 394,156.5C 394.498,159.482 394.665,162.482 394.5,165.5C 361.375,168.71 330.042,177.877 300.5,193C 288.737,200.431 278.571,209.597 270,220.5C 266.785,225.596 264.119,230.929 262,236.5C 261.333,251.833 261.333,267.167 262,282.5C 269.912,272.586 279.078,264.086 289.5,257C 318.531,239.904 349.864,229.571 383.5,226C 406.094,223.21 428.76,221.877 451.5,222C 452.576,223.726 452.743,225.559 452,227.5C 444.246,250.919 430.08,269.419 409.5,283C 380.059,300.57 348.059,310.237 313.5,312C 302.154,312.574 290.821,312.907 279.5,313C 278.572,312.612 277.905,311.945 277.5,311C 280.195,304.975 283.695,299.475 288,294.5C 310.056,274.389 335.889,261.556 365.5,256C 374.095,254.048 382.761,252.548 391.5,251.5C 392.442,251.608 393.275,251.941 394,252.5C 395.383,255.688 395.549,258.854 394.5,262C 364.79,265.57 337.123,274.903 311.5,290C 307.131,292.857 303.131,296.19 299.5,300C 339.514,301.166 376.181,290.833 409.5,269C 421.541,259.221 431.208,247.554 438.5,234C 399.463,233.506 361.463,239.506 324.5,252C 302.978,260.204 284.812,273.038 270,290.5C 265.339,297.155 262.339,304.488 261,312.5C 252.768,315.913 248.768,313.247 249,304.5C 240.662,286.496 227.829,272.662 210.5,263C 181.309,247.95 150.309,238.95 117.5,236C 102.857,234.12 88.1902,233.62 73.5,234.5C 85.531,256.692 103.198,272.859 126.5,283C 154.353,294.77 183.353,300.77 213.5,301C 196.807,285.983 177.473,275.65 155.5,270C 142.991,266.565 130.324,263.898 117.5,262C 116.201,258.865 116.201,255.699 117.5,252.5C 150.139,254.414 180.472,263.914 208.5,281C 219.73,288.802 228.396,298.802 234.5,311C 234.355,311.772 234.022,312.439 233.5,313C 196.735,314.15 161.068,308.483 126.5,296C 109.931,288.798 95.0976,278.965 82,266.5C 71.0466,253.931 63.2132,239.597 58.5,223.5C 58.7093,222.914 59.0426,222.414 59.5,222C 98.0554,221.432 136.055,225.765 173.5,235C 195.324,241.592 215.324,251.592 233.5,265C 239.366,270.531 244.866,276.365 250,282.5C 249.697,266.245 249.363,249.912 249,233.5C 240.316,216.482 227.816,202.982 211.5,193C 181.965,177.781 150.632,168.448 117.5,165C 117.043,164.586 116.709,164.086 116.5,163.5C 117.23,160.891 117.73,158.224 118,155.5C 159.113,156.649 196.613,168.816 230.5,192C 238.068,197.899 244.568,204.732 250,212.5C 249.719,198.553 249.386,184.553 249,170.5C 246.779,164.39 243.779,158.723 240,153.5C 227.013,138.846 211.513,127.68 193.5,120C 169.449,110.071 144.449,104.071 118.5,102C 117.643,101.311 116.977,100.478 116.5,99.5C 117.213,97.2241 117.713,94.8907 118,92.5C 155.788,93.3151 190.955,103.482 223.5,123C 233.75,130.039 242.583,138.539 250,148.5C 249.931,134.318 249.598,119.985 249,105.5C 240.625,88.7934 228.459,75.6268 212.5,66C 188.118,52.5393 162.118,43.8726 134.5,40C 113.299,36.5798 91.9654,35.0798 70.5,35.5C 70.8333,94.8371 70.5,154.17 69.5,213.5C 65.9244,213.907 62.2578,213.907 58.5,213.5C 58.1688,150.262 58.5021,87.0954 59.5,24C 100.596,22.8625 140.929,27.8625 180.5,39C 202.652,46.1565 222.485,57.3232 240,72.5C 246.101,78.9315 251.434,85.9315 256,93.5C 268.007,74.4996 284.174,59.9996 304.5,50C 338.54,35.0562 374.206,26.7228 411.5,25C 423.347,24.7362 435.18,24.2362 447,23.5C 451.87,22.6733 454.036,24.6733 453.5,29.5 Z"/></g>
<g><path style="opacity:1" fill="#b1b1b1" d="M 453.5,29.5 C 453.833,90.837 453.5,152.17 452.5,213.5C 449.916,214.393 447.249,214.726 444.5,214.5C 444.389,213.883 444.056,213.383 443.5,213C 446.146,212.503 448.813,212.336 451.5,212.5C 451.333,150.166 451.5,87.8324 452,25.5C 452.21,27.0581 452.71,28.3915 453.5,29.5 Z"/></g>
<g><path style="opacity:0.953" fill="#bebebe" d="M 617.5,57.5 C 625.586,57.452 633.253,59.7853 640.5,64.5C 646.033,70.0796 647.866,76.7462 646,84.5C 644.959,89.7074 641.792,92.7074 636.5,93.5C 634.386,92.9661 632.552,91.9661 631,90.5C 630.667,85.8333 630.333,81.1667 630,76.5C 629.626,75.5838 629.126,74.7504 628.5,74C 618.866,71.0358 610.032,72.5358 602,78.5C 599.783,82.0937 598.283,85.9271 597.5,90C 598.303,98.3046 602.636,103.638 610.5,106C 615.251,106.189 619.917,106.855 624.5,108C 629.247,111.648 629.58,115.648 625.5,120C 618.179,121.202 610.845,122.535 603.5,124C 589.342,130.14 585.675,140.14 592.5,154C 599.399,159.188 607.232,161.688 616,161.5C 649.162,158.698 663.162,141.031 658,108.5C 659.957,90.4131 667.79,75.5797 681.5,64C 693.578,56.9429 705.911,56.2762 718.5,62C 727.974,70.3497 730.474,80.5164 726,92.5C 723.013,100.668 717.679,103.001 710,99.5C 709.125,98.1268 708.625,96.6268 708.5,95C 710.167,90.6667 711.833,86.3333 713.5,82C 712.711,75.2152 708.878,72.0486 702,72.5C 691.813,73.2639 684.48,78.2639 680,87.5C 672.251,104.531 670.584,122.198 675,140.5C 680.586,154.407 690.92,161.74 706,162.5C 717.254,162.041 726.254,157.374 733,148.5C 735.982,143.22 739.149,138.053 742.5,133C 750.827,130.997 754.327,134.164 753,142.5C 738.672,174.065 715.172,183.565 682.5,171C 675.333,166.5 669.5,160.667 665,153.5C 649.759,170.697 630.592,177.864 607.5,175C 582.687,172.485 571.854,158.985 575,134.5C 578.771,124.396 585.604,117.229 595.5,113C 583.795,104.207 580.295,92.7072 585,78.5C 591.672,65.0796 602.505,58.0796 617.5,57.5 Z"/></g>
<g><path style="opacity:0.958" fill="#bebebe" d="M 833.5,66.5 C 832.883,66.6107 832.383,66.944 832,67.5C 830.057,93.4713 829.39,119.471 830,145.5C 830.333,146.5 830.667,147.5 831,148.5C 831.464,147.906 831.631,147.239 831.5,146.5C 835.217,162.262 842.05,163.595 852,150.5C 859.946,134.327 865.28,117.327 868,99.5C 869.531,88.524 870.864,77.524 872,66.5C 873.239,59.9283 877.073,57.7616 883.5,60C 884.701,60.9025 885.535,62.0692 886,63.5C 885.278,84.8177 884.445,106.151 883.5,127.5C 883.541,136.578 884.374,145.578 886,154.5C 889.427,160.714 893.427,161.048 898,155.5C 902.163,149.015 905.163,142.015 907,134.5C 907.333,111.5 907.667,88.5 908,65.5C 910.521,61.9874 914.021,60.1541 918.5,60C 929.217,59.1254 939.884,59.4587 950.5,61C 966.844,67.4859 974.844,79.6525 974.5,97.5C 973.869,117.305 964.202,130.139 945.5,136C 949.459,142.083 953.292,148.249 957,154.5C 963.877,162.448 970.877,162.448 978,154.5C 981.252,149.666 984.252,144.666 987,139.5C 995.076,118.2 1002.08,96.5334 1008,74.5C 1009.65,70.2114 1011.32,65.878 1013,61.5C 1016.26,59.5715 1019.76,59.0715 1023.5,60C 1024.46,61.4194 1025.29,62.9194 1026,64.5C 1032.42,94.5835 1039.08,124.583 1046,154.5C 1048.93,161.618 1052.93,162.285 1058,156.5C 1061.98,148.863 1065.48,141.029 1068.5,133C 1077.72,128.912 1081.88,131.746 1081,141.5C 1076.92,153.494 1070.42,163.994 1061.5,173C 1047.84,178.254 1038.34,174.087 1033,160.5C 1032.33,156.475 1031.17,152.641 1029.5,149C 1019.59,148.182 1009.76,148.349 1000,149.5C 997.595,156.047 995.595,162.714 994,169.5C 990.127,175.129 985.461,175.796 980,171.5C 966.842,178.268 955.509,175.935 946,164.5C 943.148,160.796 940.815,156.796 939,152.5C 936.287,148.908 933.453,145.408 930.5,142C 927.986,140.748 925.32,140.248 922.5,140.5C 922.666,150.506 922.5,160.506 922,170.5C 915.045,176.641 910.045,175.308 907,166.5C 900.02,175.732 891.187,177.898 880.5,173C 877.567,170.736 875.4,167.902 874,164.5C 871.573,158.368 869.907,152.034 869,145.5C 865.525,155.617 859.691,164.117 851.5,171C 830.953,178.797 819.453,171.63 817,149.5C 816.013,121.126 816.679,92.7924 819,64.5C 819.707,62.9194 820.54,61.4194 821.5,60C 824.5,59.3333 827.5,59.3333 830.5,60C 832.451,61.7342 833.451,63.9009 833.5,66.5 Z M 927.5,73.5 C 954.43,71.9873 964.264,84.3207 957,110.5C 953.503,117.993 947.67,122.493 939.5,124C 933.959,125.363 928.459,125.529 923,124.5C 922.333,108.167 922.333,91.8333 923,75.5C 924.622,74.9011 926.122,74.2344 927.5,73.5 Z M 1016.5,92.5 C 1018.09,95.5569 1019.26,98.8902 1020,102.5C 1022.11,113.869 1024.27,125.202 1026.5,136.5C 1019.14,136.831 1011.8,136.497 1004.5,135.5C 1009.28,121.357 1013.28,107.024 1016.5,92.5 Z"/></g>
<g><path style="opacity:0.923" fill="#bfbfbf" d="M 505.5,59.5 C 508.187,59.3359 510.854,59.5026 513.5,60C 514.646,60.6449 515.646,61.4783 516.5,62.5C 517.5,94.8265 517.833,127.16 517.5,159.5C 532.172,159.778 546.839,160.278 561.5,161C 564.88,164.331 565.38,168.164 563,172.5C 561.933,173.191 560.766,173.691 559.5,174C 542.167,174.667 524.833,174.667 507.5,174C 505.777,173.477 504.444,172.477 503.5,171C 502.343,135.196 502.176,99.3627 503,63.5C 503.662,62.0161 504.496,60.6828 505.5,59.5 Z"/></g>
<g><path style="opacity:0.98" fill="#bebebe" d="M 774.5,77.5 C 773.883,77.6107 773.383,77.944 773,78.5C 772.833,93.3333 772.667,108.167 772.5,123C 772.501,138.182 773.167,153.015 774.5,167.5C 771.118,175.476 766.285,176.476 760,170.5C 759.5,138.168 759.333,105.835 759.5,73.5C 750.06,73.9455 740.726,73.4455 731.5,72C 727.5,68 727.5,64 731.5,60C 735.863,59.7095 740.196,59.2095 744.5,58.5C 757.459,59.663 770.459,59.663 783.5,58.5C 789.507,58.9098 795.507,59.4098 801.5,60C 805.115,63.6591 805.448,67.6591 802.5,72C 793.248,73.4172 783.915,73.9172 774.5,73.5C 774.5,74.8333 774.5,76.1667 774.5,77.5 Z"/></g>
<g><path style="opacity:0.682" fill="#aeaeae" d="M 774.5,77.5 C 774.5,107.5 774.5,137.5 774.5,167.5C 773.167,153.015 772.501,138.182 772.5,123C 772.667,108.167 772.833,93.3333 773,78.5C 773.383,77.944 773.883,77.6107 774.5,77.5 Z"/></g>
<g><path style="opacity:0.768" fill="#b2b2b2" d="M 833.5,66.5 C 832.259,93.1503 831.593,119.817 831.5,146.5C 831.631,147.239 831.464,147.906 831,148.5C 830.667,147.5 830.333,146.5 830,145.5C 829.39,119.471 830.057,93.4713 832,67.5C 832.383,66.944 832.883,66.6107 833.5,66.5 Z"/></g>
<g><path style="opacity:0.95" fill="#bebebe" d="M 688.5,253.5 C 692.803,256.971 696.636,260.971 700,265.5C 703.349,279.458 697.849,287.125 683.5,288.5C 678.68,287.962 674.013,286.795 669.5,285C 667.487,284.32 666.154,282.987 665.5,281C 666.441,277.237 668.441,274.404 671.5,272.5C 675.594,274.643 679.928,275.976 684.5,276.5C 684.66,274.801 684.494,273.134 684,271.5C 678.775,268.21 674.108,264.21 670,259.5C 666.848,249.299 669.682,241.132 678.5,235C 685.599,232.616 692.433,233.116 699,236.5C 701.512,241.636 702.012,246.969 700.5,252.5C 696.571,253.433 692.571,253.766 688.5,253.5 Z M 688.5,253.5 C 685.246,252.327 684.08,249.994 685,246.5C 685.414,246.043 685.914,245.709 686.5,245.5C 687.26,248.187 687.927,250.853 688.5,253.5 Z"/></g>
<g><path style="opacity:0.954" fill="#bdbdbd" d="M 766.5,233.5 C 777.184,231.918 784.017,236.252 787,246.5C 789.774,258.848 788.108,270.514 782,281.5C 773.513,290.002 764.513,290.668 755,283.5C 749.108,274.585 747.775,264.919 751,254.5C 752.328,244.454 757.494,237.454 766.5,233.5 Z M 769.5,246.5 C 770.5,246.5 771.5,246.5 772.5,246.5C 773.992,255.265 773.492,263.932 771,272.5C 769.494,275.474 767.828,275.807 766,273.5C 765.199,266.111 765.533,258.777 767,251.5C 767.366,249.548 768.199,247.882 769.5,246.5 Z"/></g>
<g><path style="opacity:0.959" fill="#bebebe" d="M 813.5,233.5 C 829.306,233.48 835.139,241.147 831,256.5C 829.26,259.915 827.094,263.082 824.5,266C 826.168,271.169 828.502,276.003 831.5,280.5C 828.403,283.888 824.736,286.555 820.5,288.5C 816.928,284.369 814.094,279.702 812,274.5C 810.89,272.963 809.39,272.297 807.5,272.5C 807.803,277.43 807.469,282.263 806.5,287C 803.244,287.87 799.911,288.37 796.5,288.5C 795.252,287.96 794.085,287.293 793,286.5C 793.246,271.135 794.246,255.802 796,240.5C 796.273,238.899 796.773,237.399 797.5,236C 803.025,235.48 808.358,234.647 813.5,233.5 Z M 811.5,247.5 C 818.869,248.154 819.535,250.987 813.5,256C 812.128,256.402 810.795,256.902 809.5,257.5C 807.863,253.588 808.529,250.254 811.5,247.5 Z"/></g>
<g><path style="opacity:0.983" fill="#bdbdbd" d="M 707.5,233.5 C 719.505,233.333 731.505,233.5 743.5,234C 746.062,238.077 746.062,242.244 743.5,246.5C 740.242,247.417 736.909,247.751 733.5,247.5C 733.426,257.174 733.092,266.841 732.5,276.5C 732.458,280.595 731.792,284.429 730.5,288C 726.5,288.667 722.5,288.667 718.5,288C 718,287.5 717.5,287 717,286.5C 717.138,274.179 717.305,261.846 717.5,249.5C 713.561,249.959 709.727,249.959 706,249.5C 705.003,243.95 705.503,238.617 707.5,233.5 Z"/></g>
<g><path style="opacity:0.953" fill="#bebebe" d="M 841.5,234.5 C 853.081,234.179 864.581,234.512 876,235.5C 876.793,239.423 876.626,243.256 875.5,247C 868.506,247.966 861.506,248.799 854.5,249.5C 854.5,250.833 854.5,252.167 854.5,253.5C 859.844,253.334 865.177,253.501 870.5,254C 871.46,257.73 871.793,261.563 871.5,265.5C 866.197,266.439 860.863,267.273 855.5,268C 853.893,269.049 853.227,270.549 853.5,272.5C 859.442,272.682 865.275,272.682 871,272.5C 872.473,272.903 873.806,273.57 875,274.5C 875.667,278.167 875.667,281.833 875,285.5C 874.25,286.126 873.416,286.626 872.5,287C 861.508,287.961 850.508,288.294 839.5,288C 839,287.5 838.5,287 838,286.5C 837.797,269.038 838.964,251.704 841.5,234.5 Z"/></g>
</svg>
